<svg width="32" height="32" viewBox="0 0 32 32" fill="none" xmlns="http://www.w3.org/2000/svg">
  <defs>
    <linearGradient id="bg" x1="0" y1="0" x2="32" y2="32" gradientUnits="userSpaceOnUse">
      <stop stop-color="#0A1023"/>
      <stop offset="1" stop-color="#151E3A"/>
    </linearGradient>
    <linearGradient id="trace" x1="4" y1="4" x2="28" y2="28" gradientUnits="userSpaceOnUse">
      <stop stop-color="#34D3FF"/>
      <stop offset="0.5" stop-color="#6FA8FF"/>
      <stop offset="1" stop-color="#A86CFF"/>
    </linearGradient>
  </defs>
  <!-- Outer chip body -->
  <rect width="32" height="32" rx="7" fill="url(#bg)"/>
  <!-- Inner die -->
  <rect x="7" y="7" width="18" height="18" rx="3" fill="#0D1630" stroke="#6E7EB8" stroke-opacity="0.4" stroke-width="0.75"/>
  <!-- Pin traces – top/bottom -->
  <line x1="11" y1="7" x2="11" y2="3" stroke="url(#trace)" stroke-width="1.5" stroke-linecap="round" stroke-opacity="0.8"/>
  <line x1="16" y1="7" x2="16" y2="2" stroke="url(#trace)" stroke-width="1.5" stroke-linecap="round" stroke-opacity="0.8"/>
  <line x1="21" y1="7" x2="21" y2="3" stroke="url(#trace)" stroke-width="1.5" stroke-linecap="round" stroke-opacity="0.8"/>
  <line x1="11" y1="25" x2="11" y2="29" stroke="url(#trace)" stroke-width="1.5" stroke-linecap="round" stroke-opacity="0.8"/>
  <line x1="16" y1="25" x2="16" y2="30" stroke="url(#trace)" stroke-width="1.5" stroke-linecap="round" stroke-opacity="0.8"/>
  <line x1="21" y1="25" x2="21" y2="29" stroke="url(#trace)" stroke-width="1.5" stroke-linecap="round" stroke-opacity="0.8"/>
  <!-- Pin traces – left/right -->
  <line x1="7" y1="11" x2="3" y2="11" stroke="url(#trace)" stroke-width="1.5" stroke-linecap="round" stroke-opacity="0.8"/>
  <line x1="7" y1="16" x2="2" y2="16" stroke="url(#trace)" stroke-width="1.5" stroke-linecap="round" stroke-opacity="0.8"/>
  <line x1="7" y1="21" x2="3" y2="21" stroke="url(#trace)" stroke-width="1.5" stroke-linecap="round" stroke-opacity="0.8"/>
  <line x1="25" y1="11" x2="29" y2="11" stroke="url(#trace)" stroke-width="1.5" stroke-linecap="round" stroke-opacity="0.8"/>
  <line x1="25" y1="16" x2="30" y2="16" stroke="url(#trace)" stroke-width="1.5" stroke-linecap="round" stroke-opacity="0.8"/>
  <line x1="25" y1="21" x2="29" y2="21" stroke="url(#trace)" stroke-width="1.5" stroke-linecap="round" stroke-opacity="0.8"/>
  <!-- Inner circuit cross -->
  <path d="M10 13 H13 V16 H19 V19 H22" stroke="url(#trace)" stroke-width="1.2" stroke-linecap="round" stroke-linejoin="round" stroke-opacity="0.9"/>
  <path d="M10 19 H13 V16 H16 V13 H22" stroke="url(#trace)" stroke-width="1.2" stroke-linecap="round" stroke-linejoin="round" stroke-opacity="0.9"/>
  <!-- Junction nodes -->
  <circle cx="13" cy="16" r="1.2" fill="#DDF5FF"/>
  <circle cx="16" cy="13" r="1.2" fill="#DDF5FF"/>
  <circle cx="19" cy="16" r="1.2" fill="#DDF5FF"/>
  <circle cx="16" cy="19" r="1.2" fill="#DDF5FF"/>
</svg>
